<svg version="1" xmlns="http://www.w3.org/2000/svg" width="256" height="256" viewBox="0 0 192.000000 192.000000"><path d="M94.5 39.2c-4.3 3.7-7.5 9.6-7.5 13.7 0 1.6-.5 3.1-1.1 3.3-.8.3-1 3.2-.4 10.1l.7 9.7H106V60c0-10-.4-16-1-16-.5 0-1 .5-1 1 0 1.6-8.1 10-11.1 11.6-3.6 1.8-4.9 1.8-4.9-.1 0-.8.8-1.5 1.8-1.5 4.3 0 14.2-11.2 14.2-16.1 0-2.5-.4-2.9-3-2.9-1.9 0-4.2 1.1-6.5 3.2zM84.8 77.7l-2.8.4V102h11.8c17.4 0 16.2.9 16.2-12.5 0-9.4-.3-11.4-1.6-11.9-1.7-.6-19.1-.6-23.6.1z"/><path d="M94.3 102.7c-12.5.3-13.3.5-13.3 2.3 0 1.9.7 2 12.8 2 7 0 13.7-.3 15-.6 2.7-.8 3.1-4.5.5-4.2-1 .1-7.8.4-15 .5zM108.8 107.6c-.4.3-7 .6-14.7.6H80v46.7l5.5.6c7.4 1 25.2.2 26.5-1.1.7-.7.9-9.1.8-24-.3-19.7-.5-22.9-1.8-23.2-.9-.1-1.9 0-2.2.4zm-20.8 24c0 9-.4 16.4-.9 16.4-1 0-2.5-31.5-1.6-33 1.8-2.9 2.5 1.6 2.5 16.6zM171.5 148.7c-11 16.6-31.2 30.7-52 36.5-6.6 1.8-10.6 2.2-23.5 2.2-18.3 0-26.1-1.7-40.5-8.9-4.9-2.4-8.1-3.7-7-2.8 4.1 3.2 18.3 9.4 26.5 11.5 9.1 2.3 29.2 3.1 37.8 1.5 21.9-4.1 44-17.7 55.7-34.2 5.6-7.9 7.8-11.5 7.3-11.5-.3 0-2.2 2.6-4.3 5.7zM40 169.4c0 .2.8 1 1.8 1.7 1.5 1.3 1.6 1.2.3-.4s-2.1-2.1-2.1-1.3z"/></svg>